<mxfile host="app.diagrams.net" modified="2022-03-09T02:53:43.058Z" agent="5.0 (Macintosh; Intel Mac OS X 10_15_7) AppleWebKit/537.36 (KHTML, like Gecko) Chrome/81.0.4044.138 Safari/537.36" etag="0ZGkL9wcORqo6TXm-oXC" version="16.6.5" type="github">
  <diagram id="Uhu2Ll49Uh4k2IdSFsoS" name="Page-1">
    <mxGraphModel dx="3018" dy="728" grid="1" gridSize="10" guides="1" tooltips="1" connect="1" arrows="1" fold="1" page="1" pageScale="1" pageWidth="827" pageHeight="1169" math="0" shadow="0">
      <root>
        <mxCell id="0" />
        <mxCell id="1" parent="0" />
        <mxCell id="-PRiL7OBCbt_mv9-A4bU-6" value="用户侧" style="rounded=0;whiteSpace=wrap;html=1;fillColor=#B5739D;strokeColor=#E6D0DE;" parent="1" vertex="1">
          <mxGeometry x="240" y="1260" width="120" height="60" as="geometry" />
        </mxCell>
        <mxCell id="-PRiL7OBCbt_mv9-A4bU-7" value="MSE-OPS" style="rounded=0;whiteSpace=wrap;html=1;" parent="1" vertex="1">
          <mxGeometry x="660" y="1260" width="120" height="60" as="geometry" />
        </mxCell>
        <mxCell id="-PRiL7OBCbt_mv9-A4bU-8" value="Arms数据源" style="rounded=0;whiteSpace=wrap;html=1;strokeColor=#FFB570;fillColor=#FFB570;" parent="1" vertex="1">
          <mxGeometry x="1040" y="1260" width="120" height="60" as="geometry" />
        </mxCell>
        <mxCell id="-PRiL7OBCbt_mv9-A4bU-9" style="edgeStyle=orthogonalEdgeStyle;rounded=0;orthogonalLoop=1;jettySize=auto;html=1;exitX=1;exitY=0.5;exitDx=0;exitDy=0;entryX=0;entryY=0.5;entryDx=0;entryDy=0;" parent="1" source="-PRiL7OBCbt_mv9-A4bU-10" target="-PRiL7OBCbt_mv9-A4bU-23" edge="1">
          <mxGeometry relative="1" as="geometry" />
        </mxCell>
        <mxCell id="-PRiL7OBCbt_mv9-A4bU-10" value="Nacos引擎" style="rounded=0;whiteSpace=wrap;html=1;" parent="1" vertex="1">
          <mxGeometry x="580" y="1520" width="120" height="60" as="geometry" />
        </mxCell>
        <mxCell id="-PRiL7OBCbt_mv9-A4bU-11" value="" style="endArrow=classic;html=1;rounded=0;entryX=1;entryY=0.75;entryDx=0;entryDy=0;exitX=0;exitY=0.75;exitDx=0;exitDy=0;fillColor=#FFB570;strokeColor=#FFB570;" parent="1" source="-PRiL7OBCbt_mv9-A4bU-8" target="-PRiL7OBCbt_mv9-A4bU-7" edge="1">
          <mxGeometry width="50" height="50" relative="1" as="geometry">
            <mxPoint x="310" y="1410" as="sourcePoint" />
            <mxPoint x="610" y="1410" as="targetPoint" />
          </mxGeometry>
        </mxCell>
        <mxCell id="-PRiL7OBCbt_mv9-A4bU-12" value="" style="endArrow=classic;html=1;rounded=0;entryX=0;entryY=0.25;entryDx=0;entryDy=0;exitX=1;exitY=0.25;exitDx=0;exitDy=0;fillColor=#FFB570;strokeColor=#FFB570;" parent="1" source="-PRiL7OBCbt_mv9-A4bU-7" target="-PRiL7OBCbt_mv9-A4bU-8" edge="1">
          <mxGeometry width="50" height="50" relative="1" as="geometry">
            <mxPoint x="530" y="1090" as="sourcePoint" />
            <mxPoint x="530" y="1250" as="targetPoint" />
          </mxGeometry>
        </mxCell>
        <mxCell id="-PRiL7OBCbt_mv9-A4bU-13" value="SDK直连访问" style="rounded=0;whiteSpace=wrap;html=1;strokeColor=none;" parent="1" vertex="1">
          <mxGeometry x="334" y="1380" width="120" height="60" as="geometry" />
        </mxCell>
        <mxCell id="-PRiL7OBCbt_mv9-A4bU-14" value="" style="endArrow=classic;html=1;rounded=0;entryX=1;entryY=0.75;entryDx=0;entryDy=0;exitX=0;exitY=0.75;exitDx=0;exitDy=0;fillColor=#B5739D;strokeColor=#B5739D;" parent="1" source="-PRiL7OBCbt_mv9-A4bU-7" target="-PRiL7OBCbt_mv9-A4bU-6" edge="1">
          <mxGeometry width="50" height="50" relative="1" as="geometry">
            <mxPoint x="760" y="1270" as="sourcePoint" />
            <mxPoint x="760" y="1110" as="targetPoint" />
          </mxGeometry>
        </mxCell>
        <mxCell id="-PRiL7OBCbt_mv9-A4bU-15" value="" style="endArrow=classic;html=1;rounded=0;entryX=0;entryY=0.25;entryDx=0;entryDy=0;exitX=1;exitY=0.25;exitDx=0;exitDy=0;fillColor=#B5739D;strokeColor=#B5739D;" parent="1" source="-PRiL7OBCbt_mv9-A4bU-6" target="-PRiL7OBCbt_mv9-A4bU-7" edge="1">
          <mxGeometry width="50" height="50" relative="1" as="geometry">
            <mxPoint x="670" y="1315" as="sourcePoint" />
            <mxPoint x="370" y="1315" as="targetPoint" />
          </mxGeometry>
        </mxCell>
        <mxCell id="-PRiL7OBCbt_mv9-A4bU-17" style="edgeStyle=orthogonalEdgeStyle;rounded=0;orthogonalLoop=1;jettySize=auto;html=1;exitX=1;exitY=0.5;exitDx=0;exitDy=0;entryX=0;entryY=0.5;entryDx=0;entryDy=0;" parent="1" source="-PRiL7OBCbt_mv9-A4bU-18" target="-PRiL7OBCbt_mv9-A4bU-24" edge="1">
          <mxGeometry relative="1" as="geometry" />
        </mxCell>
        <mxCell id="-PRiL7OBCbt_mv9-A4bU-18" value="Zookeeper引擎" style="rounded=0;whiteSpace=wrap;html=1;" parent="1" vertex="1">
          <mxGeometry x="580" y="1610" width="120" height="60" as="geometry" />
        </mxCell>
        <mxCell id="-PRiL7OBCbt_mv9-A4bU-19" value="" style="endArrow=classic;html=1;rounded=0;entryX=0;entryY=0.5;entryDx=0;entryDy=0;exitX=0.75;exitY=1;exitDx=0;exitDy=0;fillColor=#B5739D;strokeColor=#B5739D;" parent="1" source="-PRiL7OBCbt_mv9-A4bU-6" target="-PRiL7OBCbt_mv9-A4bU-10" edge="1">
          <mxGeometry width="50" height="50" relative="1" as="geometry">
            <mxPoint x="370" y="1475" as="sourcePoint" />
            <mxPoint x="670" y="1475" as="targetPoint" />
            <Array as="points">
              <mxPoint x="330" y="1550" />
            </Array>
          </mxGeometry>
        </mxCell>
        <mxCell id="-PRiL7OBCbt_mv9-A4bU-20" value="" style="endArrow=classic;html=1;rounded=0;fillColor=#FFB570;strokeColor=#FFB570;exitX=1;exitY=0.5;exitDx=0;exitDy=0;entryX=0.25;entryY=1;entryDx=0;entryDy=0;" parent="1" source="-PRiL7OBCbt_mv9-A4bU-23" target="-PRiL7OBCbt_mv9-A4bU-8" edge="1">
          <mxGeometry width="50" height="50" relative="1" as="geometry">
            <mxPoint x="1000" y="1700" as="sourcePoint" />
            <mxPoint x="1070" y="1590" as="targetPoint" />
            <Array as="points">
              <mxPoint x="1070" y="1550" />
            </Array>
          </mxGeometry>
        </mxCell>
        <mxCell id="-PRiL7OBCbt_mv9-A4bU-21" value="" style="endArrow=classic;html=1;rounded=0;fillColor=#FFB570;strokeColor=#FFB570;exitX=1;exitY=0.5;exitDx=0;exitDy=0;entryX=0.75;entryY=1;entryDx=0;entryDy=0;" parent="1" source="-PRiL7OBCbt_mv9-A4bU-24" target="-PRiL7OBCbt_mv9-A4bU-8" edge="1">
          <mxGeometry width="50" height="50" relative="1" as="geometry">
            <mxPoint x="1010" y="1790" as="sourcePoint" />
            <mxPoint x="1130" y="1590" as="targetPoint" />
            <Array as="points">
              <mxPoint x="1130" y="1640" />
            </Array>
          </mxGeometry>
        </mxCell>
        <mxCell id="-PRiL7OBCbt_mv9-A4bU-22" value="" style="endArrow=classic;html=1;rounded=0;entryX=0;entryY=0.5;entryDx=0;entryDy=0;exitX=0.25;exitY=1;exitDx=0;exitDy=0;fillColor=#B5739D;strokeColor=#B5739D;" parent="1" source="-PRiL7OBCbt_mv9-A4bU-6" target="-PRiL7OBCbt_mv9-A4bU-18" edge="1">
          <mxGeometry width="50" height="50" relative="1" as="geometry">
            <mxPoint x="260" y="1600" as="sourcePoint" />
            <mxPoint x="590" y="1790" as="targetPoint" />
            <Array as="points">
              <mxPoint x="270" y="1640" />
            </Array>
          </mxGeometry>
        </mxCell>
        <mxCell id="-PRiL7OBCbt_mv9-A4bU-23" value="pod本地log" style="rounded=0;whiteSpace=wrap;html=1;" parent="1" vertex="1">
          <mxGeometry x="750" y="1520" width="120" height="60" as="geometry" />
        </mxCell>
        <mxCell id="-PRiL7OBCbt_mv9-A4bU-24" value="pod本地log" style="rounded=0;whiteSpace=wrap;html=1;" parent="1" vertex="1">
          <mxGeometry x="750" y="1610" width="120" height="60" as="geometry" />
        </mxCell>
        <mxCell id="-PRiL7OBCbt_mv9-A4bU-25" value="采集" style="rounded=0;whiteSpace=wrap;html=1;strokeColor=none;" parent="1" vertex="1">
          <mxGeometry x="730" y="1430" width="120" height="60" as="geometry" />
        </mxCell>
        <mxCell id="-PRiL7OBCbt_mv9-A4bU-26" value="PromQL" style="rounded=0;whiteSpace=wrap;html=1;strokeColor=none;" parent="1" vertex="1">
          <mxGeometry x="840" y="1200" width="120" height="60" as="geometry" />
        </mxCell>
        <mxCell id="-PRiL7OBCbt_mv9-A4bU-29" value="采集" style="rounded=0;whiteSpace=wrap;html=1;strokeColor=none;" parent="1" vertex="1">
          <mxGeometry x="930" y="1420" width="120" height="60" as="geometry" />
        </mxCell>
        <mxCell id="-PRiL7OBCbt_mv9-A4bU-31" value="用户侧" style="rounded=0;whiteSpace=wrap;html=1;fillColor=none;strokeColor=#000000;" parent="1" vertex="1">
          <mxGeometry x="240" y="520" width="120" height="60" as="geometry" />
        </mxCell>
        <mxCell id="-PRiL7OBCbt_mv9-A4bU-32" value="MSE-OPS" style="rounded=0;whiteSpace=wrap;html=1;" parent="1" vertex="1">
          <mxGeometry x="660" y="520" width="120" height="60" as="geometry" />
        </mxCell>
        <mxCell id="-PRiL7OBCbt_mv9-A4bU-33" value="数据源" style="rounded=0;whiteSpace=wrap;html=1;strokeColor=#000000;fillColor=none;" parent="1" vertex="1">
          <mxGeometry x="1040" y="520" width="120" height="60" as="geometry" />
        </mxCell>
        <mxCell id="-PRiL7OBCbt_mv9-A4bU-34" style="edgeStyle=orthogonalEdgeStyle;rounded=0;orthogonalLoop=1;jettySize=auto;html=1;exitX=1;exitY=0.5;exitDx=0;exitDy=0;entryX=0;entryY=0.5;entryDx=0;entryDy=0;strokeColor=#C3ABD0;fillColor=#C3ABD0;" parent="1" source="-PRiL7OBCbt_mv9-A4bU-35" target="-PRiL7OBCbt_mv9-A4bU-47" edge="1">
          <mxGeometry relative="1" as="geometry" />
        </mxCell>
        <mxCell id="-PRiL7OBCbt_mv9-A4bU-35" value="Nacos配置中心" style="rounded=0;whiteSpace=wrap;html=1;strokeColor=#C3ABD0;fillColor=#C3ABD0;" parent="1" vertex="1">
          <mxGeometry x="580" y="840" width="120" height="60" as="geometry" />
        </mxCell>
        <mxCell id="-PRiL7OBCbt_mv9-A4bU-36" value="" style="endArrow=classic;html=1;rounded=0;entryX=1;entryY=0.75;entryDx=0;entryDy=0;exitX=0;exitY=0.75;exitDx=0;exitDy=0;fillColor=#FFB570;strokeColor=#000000;" parent="1" source="-PRiL7OBCbt_mv9-A4bU-33" target="-PRiL7OBCbt_mv9-A4bU-32" edge="1">
          <mxGeometry width="50" height="50" relative="1" as="geometry">
            <mxPoint x="310" y="670" as="sourcePoint" />
            <mxPoint x="610" y="670" as="targetPoint" />
          </mxGeometry>
        </mxCell>
        <mxCell id="-PRiL7OBCbt_mv9-A4bU-37" value="" style="endArrow=classic;html=1;rounded=0;entryX=0;entryY=0.25;entryDx=0;entryDy=0;exitX=1;exitY=0.25;exitDx=0;exitDy=0;fillColor=#FFB570;strokeColor=#000000;" parent="1" source="-PRiL7OBCbt_mv9-A4bU-32" target="-PRiL7OBCbt_mv9-A4bU-33" edge="1">
          <mxGeometry width="50" height="50" relative="1" as="geometry">
            <mxPoint x="530" y="350" as="sourcePoint" />
            <mxPoint x="530" y="510" as="targetPoint" />
          </mxGeometry>
        </mxCell>
        <mxCell id="-PRiL7OBCbt_mv9-A4bU-38" value="SDK直连访问" style="rounded=0;whiteSpace=wrap;html=1;strokeColor=none;" parent="1" vertex="1">
          <mxGeometry x="414" y="630" width="120" height="60" as="geometry" />
        </mxCell>
        <mxCell id="-PRiL7OBCbt_mv9-A4bU-39" value="" style="endArrow=classic;html=1;rounded=0;entryX=1;entryY=0.75;entryDx=0;entryDy=0;exitX=0;exitY=0.75;exitDx=0;exitDy=0;fillColor=#B5739D;strokeColor=#000000;" parent="1" source="-PRiL7OBCbt_mv9-A4bU-32" target="-PRiL7OBCbt_mv9-A4bU-31" edge="1">
          <mxGeometry width="50" height="50" relative="1" as="geometry">
            <mxPoint x="760" y="530" as="sourcePoint" />
            <mxPoint x="760" y="370" as="targetPoint" />
          </mxGeometry>
        </mxCell>
        <mxCell id="-PRiL7OBCbt_mv9-A4bU-40" value="" style="endArrow=classic;html=1;rounded=0;entryX=0;entryY=0.25;entryDx=0;entryDy=0;exitX=1;exitY=0.25;exitDx=0;exitDy=0;fillColor=#B5739D;strokeColor=#000000;" parent="1" source="-PRiL7OBCbt_mv9-A4bU-31" target="-PRiL7OBCbt_mv9-A4bU-32" edge="1">
          <mxGeometry width="50" height="50" relative="1" as="geometry">
            <mxPoint x="670" y="575" as="sourcePoint" />
            <mxPoint x="370" y="575" as="targetPoint" />
          </mxGeometry>
        </mxCell>
        <mxCell id="-PRiL7OBCbt_mv9-A4bU-41" style="edgeStyle=orthogonalEdgeStyle;rounded=0;orthogonalLoop=1;jettySize=auto;html=1;exitX=1;exitY=0.5;exitDx=0;exitDy=0;entryX=0;entryY=0.5;entryDx=0;entryDy=0;strokeColor=#FFB570;fillColor=#FFB570;" parent="1" source="-PRiL7OBCbt_mv9-A4bU-42" target="-PRiL7OBCbt_mv9-A4bU-48" edge="1">
          <mxGeometry relative="1" as="geometry" />
        </mxCell>
        <mxCell id="-PRiL7OBCbt_mv9-A4bU-42" value="Zookeeper引擎" style="rounded=0;whiteSpace=wrap;html=1;fillColor=#FFB570;strokeColor=#FFB570;" parent="1" vertex="1">
          <mxGeometry x="580" y="900" width="120" height="60" as="geometry" />
        </mxCell>
        <mxCell id="-PRiL7OBCbt_mv9-A4bU-43" value="" style="endArrow=classic;html=1;rounded=0;entryX=0;entryY=0.5;entryDx=0;entryDy=0;exitX=0.5;exitY=1;exitDx=0;exitDy=0;fillColor=#C3ABD0;strokeColor=#C3ABD0;" parent="1" source="-PRiL7OBCbt_mv9-A4bU-31" target="-PRiL7OBCbt_mv9-A4bU-35" edge="1">
          <mxGeometry width="50" height="50" relative="1" as="geometry">
            <mxPoint x="370" y="735" as="sourcePoint" />
            <mxPoint x="670" y="735" as="targetPoint" />
            <Array as="points">
              <mxPoint x="300" y="870" />
            </Array>
          </mxGeometry>
        </mxCell>
        <mxCell id="-PRiL7OBCbt_mv9-A4bU-44" value="" style="endArrow=classic;html=1;rounded=0;fillColor=#FFB570;strokeColor=#000000;entryX=0.5;entryY=1;entryDx=0;entryDy=0;exitX=1;exitY=0.5;exitDx=0;exitDy=0;" parent="1" source="gdhK2bCifWNFHn0NGy2Z-6" target="-PRiL7OBCbt_mv9-A4bU-33" edge="1">
          <mxGeometry width="50" height="50" relative="1" as="geometry">
            <mxPoint x="1000" y="870" as="sourcePoint" />
            <mxPoint x="1070" y="850" as="targetPoint" />
            <Array as="points">
              <mxPoint x="1100" y="870" />
            </Array>
          </mxGeometry>
        </mxCell>
        <mxCell id="-PRiL7OBCbt_mv9-A4bU-46" value="" style="endArrow=classic;html=1;rounded=0;entryX=0;entryY=0.5;entryDx=0;entryDy=0;exitX=0.25;exitY=1;exitDx=0;exitDy=0;fillColor=#FFB570;strokeColor=#FFB570;" parent="1" source="-PRiL7OBCbt_mv9-A4bU-31" target="-PRiL7OBCbt_mv9-A4bU-42" edge="1">
          <mxGeometry width="50" height="50" relative="1" as="geometry">
            <mxPoint x="260" y="860" as="sourcePoint" />
            <mxPoint x="590" y="1050" as="targetPoint" />
            <Array as="points">
              <mxPoint x="270" y="930" />
            </Array>
          </mxGeometry>
        </mxCell>
        <mxCell id="-PRiL7OBCbt_mv9-A4bU-47" value="配置中心访问log" style="rounded=0;whiteSpace=wrap;html=1;strokeColor=#C3ABD0;fillColor=#C3ABD0;" parent="1" vertex="1">
          <mxGeometry x="750" y="840" width="120" height="60" as="geometry" />
        </mxCell>
        <mxCell id="-PRiL7OBCbt_mv9-A4bU-48" value="ZooKeeper log" style="rounded=0;whiteSpace=wrap;html=1;fillColor=#FFB570;strokeColor=#FFB570;" parent="1" vertex="1">
          <mxGeometry x="750" y="900" width="120" height="60" as="geometry" />
        </mxCell>
        <mxCell id="-PRiL7OBCbt_mv9-A4bU-50" value="SLS查询SDK" style="rounded=0;whiteSpace=wrap;html=1;strokeColor=none;" parent="1" vertex="1">
          <mxGeometry x="840" y="460" width="120" height="60" as="geometry" />
        </mxCell>
        <mxCell id="-PRiL7OBCbt_mv9-A4bU-51" value="采集" style="rounded=0;whiteSpace=wrap;html=1;strokeColor=none;" parent="1" vertex="1">
          <mxGeometry x="930" y="630" width="120" height="60" as="geometry" />
        </mxCell>
        <mxCell id="-PRiL7OBCbt_mv9-A4bU-52" value="某个DataID、GroupID对应结果" style="rounded=0;whiteSpace=wrap;html=1;strokeColor=none;" parent="1" vertex="1">
          <mxGeometry x="840" y="1310" width="120" height="60" as="geometry" />
        </mxCell>
        <mxCell id="-PRiL7OBCbt_mv9-A4bU-53" value="用户侧" style="rounded=0;whiteSpace=wrap;html=1;fillColor=#B5739D;strokeColor=#E6D0DE;" parent="1" vertex="1">
          <mxGeometry x="1340" y="520" width="120" height="60" as="geometry" />
        </mxCell>
        <mxCell id="-PRiL7OBCbt_mv9-A4bU-54" value="ACM-OPS" style="rounded=0;whiteSpace=wrap;html=1;" parent="1" vertex="1">
          <mxGeometry x="1760" y="520" width="120" height="60" as="geometry" />
        </mxCell>
        <mxCell id="-PRiL7OBCbt_mv9-A4bU-55" value="T-Log" style="rounded=0;whiteSpace=wrap;html=1;strokeColor=#FFB570;fillColor=#00CCCC;" parent="1" vertex="1">
          <mxGeometry x="2140" y="520" width="120" height="60" as="geometry" />
        </mxCell>
        <mxCell id="-PRiL7OBCbt_mv9-A4bU-56" style="edgeStyle=orthogonalEdgeStyle;rounded=0;orthogonalLoop=1;jettySize=auto;html=1;exitX=1;exitY=0.5;exitDx=0;exitDy=0;entryX=0;entryY=0.5;entryDx=0;entryDy=0;" parent="1" source="-PRiL7OBCbt_mv9-A4bU-57" target="-PRiL7OBCbt_mv9-A4bU-69" edge="1">
          <mxGeometry relative="1" as="geometry" />
        </mxCell>
        <mxCell id="-PRiL7OBCbt_mv9-A4bU-57" value="ACM引擎" style="rounded=0;whiteSpace=wrap;html=1;" parent="1" vertex="1">
          <mxGeometry x="1680" y="780" width="120" height="60" as="geometry" />
        </mxCell>
        <mxCell id="-PRiL7OBCbt_mv9-A4bU-58" value="" style="endArrow=classic;html=1;rounded=0;entryX=1;entryY=0.75;entryDx=0;entryDy=0;exitX=0;exitY=0.75;exitDx=0;exitDy=0;fillColor=#FFB570;strokeColor=#FFB570;" parent="1" source="-PRiL7OBCbt_mv9-A4bU-55" target="-PRiL7OBCbt_mv9-A4bU-54" edge="1">
          <mxGeometry width="50" height="50" relative="1" as="geometry">
            <mxPoint x="1410" y="670" as="sourcePoint" />
            <mxPoint x="1710" y="670" as="targetPoint" />
          </mxGeometry>
        </mxCell>
        <mxCell id="-PRiL7OBCbt_mv9-A4bU-59" value="" style="endArrow=classic;html=1;rounded=0;entryX=0;entryY=0.25;entryDx=0;entryDy=0;exitX=1;exitY=0.25;exitDx=0;exitDy=0;fillColor=#FFB570;strokeColor=#FFB570;" parent="1" source="-PRiL7OBCbt_mv9-A4bU-54" target="-PRiL7OBCbt_mv9-A4bU-55" edge="1">
          <mxGeometry width="50" height="50" relative="1" as="geometry">
            <mxPoint x="1630" y="350" as="sourcePoint" />
            <mxPoint x="1630" y="510" as="targetPoint" />
          </mxGeometry>
        </mxCell>
        <mxCell id="-PRiL7OBCbt_mv9-A4bU-60" value="SDK直连访问" style="rounded=0;whiteSpace=wrap;html=1;strokeColor=none;" parent="1" vertex="1">
          <mxGeometry x="1410" y="640" width="120" height="60" as="geometry" />
        </mxCell>
        <mxCell id="-PRiL7OBCbt_mv9-A4bU-61" value="" style="endArrow=classic;html=1;rounded=0;entryX=1;entryY=0.75;entryDx=0;entryDy=0;exitX=0;exitY=0.75;exitDx=0;exitDy=0;fillColor=#B5739D;strokeColor=#B5739D;" parent="1" source="-PRiL7OBCbt_mv9-A4bU-54" target="-PRiL7OBCbt_mv9-A4bU-53" edge="1">
          <mxGeometry width="50" height="50" relative="1" as="geometry">
            <mxPoint x="1860" y="530" as="sourcePoint" />
            <mxPoint x="1860" y="370" as="targetPoint" />
          </mxGeometry>
        </mxCell>
        <mxCell id="-PRiL7OBCbt_mv9-A4bU-62" value="" style="endArrow=classic;html=1;rounded=0;entryX=0;entryY=0.25;entryDx=0;entryDy=0;exitX=1;exitY=0.25;exitDx=0;exitDy=0;fillColor=#B5739D;strokeColor=#B5739D;" parent="1" source="-PRiL7OBCbt_mv9-A4bU-53" target="-PRiL7OBCbt_mv9-A4bU-54" edge="1">
          <mxGeometry width="50" height="50" relative="1" as="geometry">
            <mxPoint x="1770" y="575" as="sourcePoint" />
            <mxPoint x="1470" y="575" as="targetPoint" />
          </mxGeometry>
        </mxCell>
        <mxCell id="-PRiL7OBCbt_mv9-A4bU-65" value="" style="endArrow=classic;html=1;rounded=0;entryX=0;entryY=0.5;entryDx=0;entryDy=0;exitX=0.5;exitY=1;exitDx=0;exitDy=0;fillColor=#B5739D;strokeColor=#B5739D;" parent="1" source="-PRiL7OBCbt_mv9-A4bU-53" target="-PRiL7OBCbt_mv9-A4bU-57" edge="1">
          <mxGeometry width="50" height="50" relative="1" as="geometry">
            <mxPoint x="1470" y="735" as="sourcePoint" />
            <mxPoint x="1770" y="735" as="targetPoint" />
            <Array as="points">
              <mxPoint x="1400" y="810" />
            </Array>
          </mxGeometry>
        </mxCell>
        <mxCell id="-PRiL7OBCbt_mv9-A4bU-66" value="" style="endArrow=classic;html=1;rounded=0;fillColor=#FFB570;strokeColor=#FFB570;exitX=1;exitY=0.5;exitDx=0;exitDy=0;" parent="1" source="-PRiL7OBCbt_mv9-A4bU-69" target="-PRiL7OBCbt_mv9-A4bU-55" edge="1">
          <mxGeometry width="50" height="50" relative="1" as="geometry">
            <mxPoint x="2100" y="960" as="sourcePoint" />
            <mxPoint x="2170" y="850" as="targetPoint" />
            <Array as="points">
              <mxPoint x="2200" y="810" />
            </Array>
          </mxGeometry>
        </mxCell>
        <mxCell id="-PRiL7OBCbt_mv9-A4bU-69" value="pod本地log" style="rounded=0;whiteSpace=wrap;html=1;" parent="1" vertex="1">
          <mxGeometry x="1850" y="780" width="120" height="60" as="geometry" />
        </mxCell>
        <mxCell id="-PRiL7OBCbt_mv9-A4bU-71" value="SLS查询SDK" style="rounded=0;whiteSpace=wrap;html=1;strokeColor=none;" parent="1" vertex="1">
          <mxGeometry x="1940" y="460" width="120" height="60" as="geometry" />
        </mxCell>
        <mxCell id="-PRiL7OBCbt_mv9-A4bU-72" value="采集" style="rounded=0;whiteSpace=wrap;html=1;strokeColor=none;" parent="1" vertex="1">
          <mxGeometry x="2060" y="700" width="120" height="60" as="geometry" />
        </mxCell>
        <mxCell id="O2QCgnUelPA72kU04q-o-1" value="" style="rounded=0;whiteSpace=wrap;html=1;fillColor=#D5E8D4;strokeColor=none;" parent="1" vertex="1">
          <mxGeometry x="1310" y="1054.5" width="480" height="231" as="geometry" />
        </mxCell>
        <mxCell id="O2QCgnUelPA72kU04q-o-6" value="日志采集到SLS" style="rounded=0;whiteSpace=wrap;html=1;fillColor=#FFB570;strokeColor=none;" parent="1" vertex="1">
          <mxGeometry x="1490" y="1100" width="120" height="60" as="geometry" />
        </mxCell>
        <mxCell id="O2QCgnUelPA72kU04q-o-7" value="日志采集到Loki" style="rounded=0;whiteSpace=wrap;html=1;strokeColor=none;" parent="1" vertex="1">
          <mxGeometry x="1630" y="1100" width="120" height="60" as="geometry" />
        </mxCell>
        <mxCell id="O2QCgnUelPA72kU04q-o-8" value="将操作记录（包括客户的IP）采集到日志" style="rounded=0;whiteSpace=wrap;html=1;fillColor=#FFB570;strokeColor=none;" parent="1" vertex="1">
          <mxGeometry x="1350" y="1180" width="400" height="60" as="geometry" />
        </mxCell>
        <mxCell id="O2QCgnUelPA72kU04q-o-9" value="日志格式化" style="rounded=0;whiteSpace=wrap;html=1;fillColor=#FFB570;strokeColor=none;" parent="1" vertex="1">
          <mxGeometry x="1350" y="1100" width="120" height="60" as="geometry" />
        </mxCell>
        <mxCell id="O2QCgnUelPA72kU04q-o-11" value="配置中心&amp;nbsp;" style="rounded=0;whiteSpace=wrap;html=1;strokeColor=none;" parent="1" vertex="1">
          <mxGeometry x="1490" y="1310" width="120" height="60" as="geometry" />
        </mxCell>
        <mxCell id="O2QCgnUelPA72kU04q-o-17" value="" style="rounded=0;whiteSpace=wrap;html=1;fillColor=#D5E8D4;strokeColor=none;" parent="1" vertex="1">
          <mxGeometry x="1860" y="1410" width="480" height="231" as="geometry" />
        </mxCell>
        <mxCell id="O2QCgnUelPA72kU04q-o-18" value="注册中心" style="rounded=0;whiteSpace=wrap;html=1;strokeColor=none;" parent="1" vertex="1">
          <mxGeometry x="1490" y="1655.5" width="120" height="60" as="geometry" />
        </mxCell>
        <mxCell id="O2QCgnUelPA72kU04q-o-19" value="日志采集到SLS" style="rounded=0;whiteSpace=wrap;html=1;strokeColor=none;" parent="1" vertex="1">
          <mxGeometry x="2040" y="1455.5" width="120" height="60" as="geometry" />
        </mxCell>
        <mxCell id="O2QCgnUelPA72kU04q-o-20" value="日志采集到Loki" style="rounded=0;whiteSpace=wrap;html=1;strokeColor=none;" parent="1" vertex="1">
          <mxGeometry x="2180" y="1455.5" width="120" height="60" as="geometry" />
        </mxCell>
        <mxCell id="O2QCgnUelPA72kU04q-o-21" value="将操作记录（包括客户的IP）采集到日志" style="rounded=0;whiteSpace=wrap;html=1;strokeColor=none;" parent="1" vertex="1">
          <mxGeometry x="1900" y="1535.5" width="400" height="60" as="geometry" />
        </mxCell>
        <mxCell id="O2QCgnUelPA72kU04q-o-22" value="日志格式化" style="rounded=0;whiteSpace=wrap;html=1;strokeColor=none;" parent="1" vertex="1">
          <mxGeometry x="1900" y="1455.5" width="120" height="60" as="geometry" />
        </mxCell>
        <mxCell id="O2QCgnUelPA72kU04q-o-33" value="" style="rounded=0;whiteSpace=wrap;html=1;fillColor=#D5E8D4;strokeColor=none;" parent="1" vertex="1">
          <mxGeometry x="1310" y="1410" width="480" height="231" as="geometry" />
        </mxCell>
        <mxCell id="O2QCgnUelPA72kU04q-o-34" value="ZooKeeper" style="rounded=0;whiteSpace=wrap;html=1;strokeColor=none;" parent="1" vertex="1">
          <mxGeometry x="2050" y="1655.5" width="120" height="60" as="geometry" />
        </mxCell>
        <mxCell id="O2QCgnUelPA72kU04q-o-35" value="日志采集到SLS" style="rounded=0;whiteSpace=wrap;html=1;fillColor=#FFB570;strokeColor=none;" parent="1" vertex="1">
          <mxGeometry x="1490" y="1455.5" width="120" height="60" as="geometry" />
        </mxCell>
        <mxCell id="O2QCgnUelPA72kU04q-o-36" value="日志采集到Loki" style="rounded=0;whiteSpace=wrap;html=1;strokeColor=none;" parent="1" vertex="1">
          <mxGeometry x="1630" y="1455.5" width="120" height="60" as="geometry" />
        </mxCell>
        <mxCell id="O2QCgnUelPA72kU04q-o-37" value="将操作记录（包括客户的IP）采集到日志" style="rounded=0;whiteSpace=wrap;html=1;fillColor=#FFB570;strokeColor=none;" parent="1" vertex="1">
          <mxGeometry x="1350" y="1535.5" width="400" height="60" as="geometry" />
        </mxCell>
        <mxCell id="O2QCgnUelPA72kU04q-o-38" value="日志格式化" style="rounded=0;whiteSpace=wrap;html=1;strokeColor=none;" parent="1" vertex="1">
          <mxGeometry x="1350" y="1455.5" width="120" height="60" as="geometry" />
        </mxCell>
        <mxCell id="gdhK2bCifWNFHn0NGy2Z-1" value="Nacos注册中心" style="rounded=0;whiteSpace=wrap;html=1;strokeColor=#67AB9F;fillColor=#67AB9F;" vertex="1" parent="1">
          <mxGeometry x="580" y="780" width="120" height="60" as="geometry" />
        </mxCell>
        <mxCell id="gdhK2bCifWNFHn0NGy2Z-2" value="注册中心访问log" style="rounded=0;whiteSpace=wrap;html=1;strokeColor=#67AB9F;fillColor=#67AB9F;" vertex="1" parent="1">
          <mxGeometry x="750" y="780" width="120" height="60" as="geometry" />
        </mxCell>
        <mxCell id="gdhK2bCifWNFHn0NGy2Z-3" value="" style="endArrow=classic;html=1;rounded=0;entryX=0;entryY=0.5;entryDx=0;entryDy=0;exitX=0.75;exitY=1;exitDx=0;exitDy=0;fillColor=#B5739D;strokeColor=#67AB9F;" edge="1" parent="1" source="-PRiL7OBCbt_mv9-A4bU-31" target="gdhK2bCifWNFHn0NGy2Z-1">
          <mxGeometry width="50" height="50" relative="1" as="geometry">
            <mxPoint x="340" y="590" as="sourcePoint" />
            <mxPoint x="590" y="910" as="targetPoint" />
            <Array as="points">
              <mxPoint x="330" y="810" />
            </Array>
          </mxGeometry>
        </mxCell>
        <mxCell id="gdhK2bCifWNFHn0NGy2Z-4" style="edgeStyle=orthogonalEdgeStyle;rounded=0;orthogonalLoop=1;jettySize=auto;html=1;exitX=1;exitY=0.5;exitDx=0;exitDy=0;entryX=0;entryY=0.5;entryDx=0;entryDy=0;strokeColor=#67AB9F;fillColor=#67AB9F;" edge="1" parent="1" source="gdhK2bCifWNFHn0NGy2Z-1" target="gdhK2bCifWNFHn0NGy2Z-2">
          <mxGeometry relative="1" as="geometry">
            <mxPoint x="710" y="910" as="sourcePoint" />
            <mxPoint x="760" y="910" as="targetPoint" />
          </mxGeometry>
        </mxCell>
        <mxCell id="gdhK2bCifWNFHn0NGy2Z-6" value="统一格式log" style="rounded=0;whiteSpace=wrap;html=1;" vertex="1" parent="1">
          <mxGeometry x="870" y="780" width="100" height="180" as="geometry" />
        </mxCell>
        <mxCell id="gdhK2bCifWNFHn0NGy2Z-9" value="用户侧" style="rounded=0;whiteSpace=wrap;html=1;fillColor=none;strokeColor=#000000;" vertex="1" parent="1">
          <mxGeometry x="-950" y="470" width="120" height="110" as="geometry" />
        </mxCell>
        <mxCell id="gdhK2bCifWNFHn0NGy2Z-10" value="推送轨迹查询" style="rounded=0;whiteSpace=wrap;html=1;" vertex="1" parent="1">
          <mxGeometry x="-530" y="470" width="120" height="110" as="geometry" />
        </mxCell>
        <mxCell id="gdhK2bCifWNFHn0NGy2Z-11" value="数据源" style="rounded=0;whiteSpace=wrap;html=1;strokeColor=#000000;fillColor=none;" vertex="1" parent="1">
          <mxGeometry x="-150" y="470" width="120" height="110" as="geometry" />
        </mxCell>
        <mxCell id="gdhK2bCifWNFHn0NGy2Z-12" style="edgeStyle=orthogonalEdgeStyle;rounded=0;orthogonalLoop=1;jettySize=auto;html=1;exitX=1;exitY=0.5;exitDx=0;exitDy=0;entryX=0;entryY=0.5;entryDx=0;entryDy=0;strokeColor=#C3ABD0;fillColor=#C3ABD0;" edge="1" parent="1" source="gdhK2bCifWNFHn0NGy2Z-13" target="gdhK2bCifWNFHn0NGy2Z-24">
          <mxGeometry relative="1" as="geometry" />
        </mxCell>
        <mxCell id="gdhK2bCifWNFHn0NGy2Z-13" value="Nacos配置中心" style="rounded=0;whiteSpace=wrap;html=1;strokeColor=#C3ABD0;fillColor=#C3ABD0;" vertex="1" parent="1">
          <mxGeometry x="-610" y="840" width="120" height="60" as="geometry" />
        </mxCell>
        <mxCell id="gdhK2bCifWNFHn0NGy2Z-16" value="SDK直连访问" style="rounded=0;whiteSpace=wrap;html=1;strokeColor=none;" vertex="1" parent="1">
          <mxGeometry x="-776" y="630" width="120" height="60" as="geometry" />
        </mxCell>
        <mxCell id="gdhK2bCifWNFHn0NGy2Z-17" value="" style="endArrow=classic;html=1;rounded=0;entryX=1;entryY=0.75;entryDx=0;entryDy=0;exitX=0;exitY=0.75;exitDx=0;exitDy=0;fillColor=#B5739D;strokeColor=#000000;" edge="1" parent="1" source="gdhK2bCifWNFHn0NGy2Z-10" target="gdhK2bCifWNFHn0NGy2Z-9">
          <mxGeometry width="50" height="50" relative="1" as="geometry">
            <mxPoint x="-430" y="530" as="sourcePoint" />
            <mxPoint x="-430" y="370" as="targetPoint" />
          </mxGeometry>
        </mxCell>
        <mxCell id="gdhK2bCifWNFHn0NGy2Z-18" value="" style="endArrow=classic;html=1;rounded=0;entryX=0;entryY=0.25;entryDx=0;entryDy=0;exitX=1;exitY=0.25;exitDx=0;exitDy=0;fillColor=#B5739D;strokeColor=#000000;" edge="1" parent="1" source="gdhK2bCifWNFHn0NGy2Z-9" target="gdhK2bCifWNFHn0NGy2Z-10">
          <mxGeometry width="50" height="50" relative="1" as="geometry">
            <mxPoint x="-520" y="575" as="sourcePoint" />
            <mxPoint x="-820" y="575" as="targetPoint" />
          </mxGeometry>
        </mxCell>
        <mxCell id="gdhK2bCifWNFHn0NGy2Z-19" style="edgeStyle=orthogonalEdgeStyle;rounded=0;orthogonalLoop=1;jettySize=auto;html=1;exitX=1;exitY=0.5;exitDx=0;exitDy=0;entryX=0;entryY=0.5;entryDx=0;entryDy=0;strokeColor=#FFB570;fillColor=#FFB570;" edge="1" parent="1" source="gdhK2bCifWNFHn0NGy2Z-20" target="gdhK2bCifWNFHn0NGy2Z-25">
          <mxGeometry relative="1" as="geometry" />
        </mxCell>
        <mxCell id="gdhK2bCifWNFHn0NGy2Z-20" value="Zookeeper引擎" style="rounded=0;whiteSpace=wrap;html=1;fillColor=#FFB570;strokeColor=#FFB570;" vertex="1" parent="1">
          <mxGeometry x="-610" y="900" width="120" height="60" as="geometry" />
        </mxCell>
        <mxCell id="gdhK2bCifWNFHn0NGy2Z-21" value="" style="endArrow=classic;html=1;rounded=0;entryX=0;entryY=0.5;entryDx=0;entryDy=0;exitX=0.5;exitY=1;exitDx=0;exitDy=0;fillColor=#C3ABD0;strokeColor=#C3ABD0;" edge="1" parent="1" source="gdhK2bCifWNFHn0NGy2Z-9" target="gdhK2bCifWNFHn0NGy2Z-13">
          <mxGeometry width="50" height="50" relative="1" as="geometry">
            <mxPoint x="-820" y="735" as="sourcePoint" />
            <mxPoint x="-520" y="735" as="targetPoint" />
            <Array as="points">
              <mxPoint x="-890" y="870" />
            </Array>
          </mxGeometry>
        </mxCell>
        <mxCell id="gdhK2bCifWNFHn0NGy2Z-23" value="" style="endArrow=classic;html=1;rounded=0;entryX=0;entryY=0.5;entryDx=0;entryDy=0;exitX=0.25;exitY=1;exitDx=0;exitDy=0;fillColor=#FFB570;strokeColor=#FFB570;" edge="1" parent="1" source="gdhK2bCifWNFHn0NGy2Z-9" target="gdhK2bCifWNFHn0NGy2Z-20">
          <mxGeometry width="50" height="50" relative="1" as="geometry">
            <mxPoint x="-930" y="860" as="sourcePoint" />
            <mxPoint x="-600" y="1050" as="targetPoint" />
            <Array as="points">
              <mxPoint x="-920" y="930" />
            </Array>
          </mxGeometry>
        </mxCell>
        <mxCell id="gdhK2bCifWNFHn0NGy2Z-24" value="配置中心访问log" style="rounded=0;whiteSpace=wrap;html=1;strokeColor=#C3ABD0;fillColor=#C3ABD0;" vertex="1" parent="1">
          <mxGeometry x="-440" y="840" width="120" height="60" as="geometry" />
        </mxCell>
        <mxCell id="gdhK2bCifWNFHn0NGy2Z-25" value="ZooKeeper log" style="rounded=0;whiteSpace=wrap;html=1;fillColor=#FFB570;strokeColor=#FFB570;" vertex="1" parent="1">
          <mxGeometry x="-440" y="900" width="120" height="60" as="geometry" />
        </mxCell>
        <mxCell id="gdhK2bCifWNFHn0NGy2Z-27" value="采集" style="rounded=0;whiteSpace=wrap;html=1;strokeColor=none;" vertex="1" parent="1">
          <mxGeometry x="-260" y="630" width="120" height="60" as="geometry" />
        </mxCell>
        <mxCell id="gdhK2bCifWNFHn0NGy2Z-28" value="Nacos注册中心" style="rounded=0;whiteSpace=wrap;html=1;strokeColor=#67AB9F;fillColor=#67AB9F;" vertex="1" parent="1">
          <mxGeometry x="-610" y="780" width="120" height="60" as="geometry" />
        </mxCell>
        <mxCell id="gdhK2bCifWNFHn0NGy2Z-29" value="注册中心访问log" style="rounded=0;whiteSpace=wrap;html=1;strokeColor=#67AB9F;fillColor=#67AB9F;" vertex="1" parent="1">
          <mxGeometry x="-440" y="780" width="120" height="60" as="geometry" />
        </mxCell>
        <mxCell id="gdhK2bCifWNFHn0NGy2Z-30" value="" style="endArrow=classic;html=1;rounded=0;entryX=0;entryY=0.5;entryDx=0;entryDy=0;exitX=0.75;exitY=1;exitDx=0;exitDy=0;fillColor=#B5739D;strokeColor=#67AB9F;" edge="1" parent="1" source="gdhK2bCifWNFHn0NGy2Z-9" target="gdhK2bCifWNFHn0NGy2Z-28">
          <mxGeometry width="50" height="50" relative="1" as="geometry">
            <mxPoint x="-850" y="590" as="sourcePoint" />
            <mxPoint x="-600" y="910" as="targetPoint" />
            <Array as="points">
              <mxPoint x="-860" y="810" />
            </Array>
          </mxGeometry>
        </mxCell>
        <mxCell id="gdhK2bCifWNFHn0NGy2Z-31" style="edgeStyle=orthogonalEdgeStyle;rounded=0;orthogonalLoop=1;jettySize=auto;html=1;exitX=1;exitY=0.5;exitDx=0;exitDy=0;entryX=0;entryY=0.5;entryDx=0;entryDy=0;strokeColor=#67AB9F;fillColor=#67AB9F;" edge="1" parent="1" source="gdhK2bCifWNFHn0NGy2Z-28" target="gdhK2bCifWNFHn0NGy2Z-29">
          <mxGeometry relative="1" as="geometry">
            <mxPoint x="-480" y="910" as="sourcePoint" />
            <mxPoint x="-430" y="910" as="targetPoint" />
          </mxGeometry>
        </mxCell>
        <mxCell id="gdhK2bCifWNFHn0NGy2Z-34" style="edgeStyle=orthogonalEdgeStyle;rounded=0;orthogonalLoop=1;jettySize=auto;html=1;exitX=1;exitY=0.5;exitDx=0;exitDy=0;entryX=0.25;entryY=1;entryDx=0;entryDy=0;strokeColor=#67AB9F;fillColor=#67AB9F;" edge="1" parent="1" source="gdhK2bCifWNFHn0NGy2Z-29" target="gdhK2bCifWNFHn0NGy2Z-11">
          <mxGeometry relative="1" as="geometry">
            <mxPoint x="-473" y="820" as="sourcePoint" />
            <mxPoint x="-423" y="820" as="targetPoint" />
          </mxGeometry>
        </mxCell>
        <mxCell id="gdhK2bCifWNFHn0NGy2Z-35" value="" style="endArrow=classic;html=1;rounded=0;entryX=0.5;entryY=1;entryDx=0;entryDy=0;exitX=1;exitY=0.5;exitDx=0;exitDy=0;fillColor=#C3ABD0;strokeColor=#C3ABD0;" edge="1" parent="1" source="gdhK2bCifWNFHn0NGy2Z-24" target="gdhK2bCifWNFHn0NGy2Z-11">
          <mxGeometry width="50" height="50" relative="1" as="geometry">
            <mxPoint x="-880" y="590" as="sourcePoint" />
            <mxPoint x="-600" y="880" as="targetPoint" />
            <Array as="points">
              <mxPoint x="-90" y="870" />
            </Array>
          </mxGeometry>
        </mxCell>
        <mxCell id="gdhK2bCifWNFHn0NGy2Z-36" value="" style="endArrow=classic;html=1;rounded=0;entryX=0.75;entryY=1;entryDx=0;entryDy=0;exitX=1;exitY=0.5;exitDx=0;exitDy=0;fillColor=#FFB570;strokeColor=#FFB570;" edge="1" parent="1" source="gdhK2bCifWNFHn0NGy2Z-25" target="gdhK2bCifWNFHn0NGy2Z-11">
          <mxGeometry width="50" height="50" relative="1" as="geometry">
            <mxPoint x="-200" y="819" as="sourcePoint" />
            <mxPoint x="110" y="1169" as="targetPoint" />
            <Array as="points">
              <mxPoint x="-60" y="930" />
            </Array>
          </mxGeometry>
        </mxCell>
        <mxCell id="gdhK2bCifWNFHn0NGy2Z-37" style="edgeStyle=orthogonalEdgeStyle;rounded=0;orthogonalLoop=1;jettySize=auto;html=1;exitX=0;exitY=0.25;exitDx=0;exitDy=0;strokeColor=#67AB9F;fillColor=#67AB9F;entryX=1;entryY=0.25;entryDx=0;entryDy=0;" edge="1" parent="1" source="gdhK2bCifWNFHn0NGy2Z-11" target="gdhK2bCifWNFHn0NGy2Z-40">
          <mxGeometry relative="1" as="geometry">
            <mxPoint x="20" y="785" as="sourcePoint" />
            <mxPoint x="-310" y="500" as="targetPoint" />
          </mxGeometry>
        </mxCell>
        <mxCell id="gdhK2bCifWNFHn0NGy2Z-38" value="" style="endArrow=classic;html=1;rounded=0;exitX=0;exitY=0.5;exitDx=0;exitDy=0;fillColor=#C3ABD0;strokeColor=#C3ABD0;entryX=1;entryY=0.5;entryDx=0;entryDy=0;" edge="1" parent="1" source="gdhK2bCifWNFHn0NGy2Z-11" target="gdhK2bCifWNFHn0NGy2Z-40">
          <mxGeometry width="50" height="50" relative="1" as="geometry">
            <mxPoint x="-70" y="875" as="sourcePoint" />
            <mxPoint x="-300" y="520" as="targetPoint" />
            <Array as="points" />
          </mxGeometry>
        </mxCell>
        <mxCell id="gdhK2bCifWNFHn0NGy2Z-39" value="" style="endArrow=classic;html=1;rounded=0;exitX=0;exitY=0.75;exitDx=0;exitDy=0;fillColor=#FFB570;strokeColor=#FFB570;entryX=1;entryY=0.75;entryDx=0;entryDy=0;" edge="1" parent="1" source="gdhK2bCifWNFHn0NGy2Z-11" target="gdhK2bCifWNFHn0NGy2Z-40">
          <mxGeometry width="50" height="50" relative="1" as="geometry">
            <mxPoint x="-140" y="940" as="sourcePoint" />
            <mxPoint x="-270" y="540" as="targetPoint" />
            <Array as="points" />
          </mxGeometry>
        </mxCell>
        <mxCell id="gdhK2bCifWNFHn0NGy2Z-40" value="日志格式归并" style="rounded=0;whiteSpace=wrap;html=1;" vertex="1" parent="1">
          <mxGeometry x="-413" y="470" width="90" height="110" as="geometry" />
        </mxCell>
      </root>
    </mxGraphModel>
  </diagram>
</mxfile>
